<svg width="499" height="178" viewBox="0 0 499 178" fill="none" xmlns="http://www.w3.org/2000/svg">
<path d="M372.911 97.478C375.752 92.5388 375.752 86.4612 372.911 81.522L358.792 56.978C352.656 46.3113 360.356 33 372.661 33L447.338 33C459.643 33 467.343 46.3109 461.207 56.9775L447.088 81.5239C444.248 86.4629 444.248 92.54 447.088 97.479L461.206 122.022C467.341 132.689 459.642 146 447.336 146L372.661 146C360.356 146 352.656 132.689 358.792 122.022L372.911 97.478Z" fill="url(#paint0_linear_2850_75)"/>
<path d="M372.661 34H447.338C458.874 34 466.092 46.4786 460.34 56.4785L446.221 81.0254C443.203 86.273 443.203 92.73 446.221 97.9775L460.339 122.521C466.09 132.52 458.873 145 447.337 145H372.661C361.125 145 353.907 132.52 359.659 122.521L373.777 97.9766C376.796 92.7286 376.796 86.2714 373.777 81.0234L359.659 56.4795C353.907 46.4796 361.125 34.0003 372.661 34Z" stroke="white" stroke-opacity="0.25" stroke-width="2"/>
<path d="M44.4488 119.5H26.7372L46.6922 59.0445H69.1269L89.082 119.5H71.3704L58.1457 75.6934H57.6734L44.4488 119.5ZM41.1426 95.6484H74.4404V107.928H41.1426V95.6484ZM95.1408 119.5V74.1583H110.609V82.778H111.081C112.026 79.9441 113.64 77.7007 115.922 76.0476C118.205 74.3945 120.921 73.568 124.07 73.568C127.258 73.568 130.003 74.4142 132.306 76.1066C134.608 77.7794 135.996 80.0032 136.468 82.778H136.94C137.708 80.0032 139.341 77.7794 141.84 76.1066C144.34 74.4142 147.272 73.568 150.637 73.568C154.986 73.568 158.509 74.9652 161.205 77.7597C163.921 80.5542 165.279 84.2736 165.279 88.918V119.5H148.984V93.0507C148.984 91.0631 148.482 89.5084 147.479 88.3867C146.475 87.2452 145.127 86.6745 143.434 86.6745C141.762 86.6745 140.433 87.2452 139.449 88.3867C138.485 89.5084 138.003 91.0631 138.003 93.0507V119.5H122.417V93.0507C122.417 91.0631 121.915 89.5084 120.911 88.3867C119.908 87.2452 118.559 86.6745 116.867 86.6745C115.745 86.6745 114.781 86.9304 113.974 87.442C113.167 87.9537 112.538 88.6917 112.085 89.656C111.652 90.6006 111.435 91.7322 111.435 93.0507V119.5H95.1408ZM173.079 119.5V59.0445H189.374V82.0695H189.61C190.2 80.5345 191.066 79.1274 192.208 77.8483C193.349 76.5494 194.766 75.5162 196.458 74.7487C198.151 73.9615 200.119 73.568 202.362 73.568C205.354 73.568 208.197 74.365 210.893 75.959C213.609 77.5531 215.813 80.0622 217.506 83.4864C219.218 86.9107 220.074 91.3583 220.074 96.8292C220.074 102.064 219.257 106.403 217.624 109.847C216.01 113.291 213.845 115.859 211.13 117.552C208.433 119.244 205.472 120.09 202.244 120.09C200.119 120.09 198.22 119.746 196.547 119.057C194.894 118.349 193.477 117.394 192.296 116.194C191.135 114.974 190.24 113.596 189.61 112.061H189.256V119.5H173.079ZM189.02 96.8292C189.02 99.0333 189.305 100.942 189.876 102.556C190.466 104.15 191.293 105.39 192.355 106.275C193.438 107.141 194.727 107.574 196.222 107.574C197.718 107.574 198.987 107.151 200.03 106.305C201.093 105.439 201.9 104.209 202.451 102.615C203.022 101.001 203.307 99.0726 203.307 96.8292C203.307 94.5857 203.022 92.6669 202.451 91.0729C201.9 89.4592 201.093 88.2292 200.03 87.383C198.987 86.5171 197.718 86.0841 196.222 86.0841C194.727 86.0841 193.438 86.5171 192.355 87.383C191.293 88.2292 190.466 89.4592 189.876 91.0729C189.305 92.6669 189.02 94.5857 189.02 96.8292ZM248.737 120.327C243.817 120.327 239.606 119.352 236.103 117.404C232.6 115.436 229.914 112.701 228.044 109.198C226.175 105.675 225.24 101.592 225.24 96.9473C225.24 92.3029 226.175 88.2292 228.044 84.7263C229.914 81.2036 232.6 78.4682 236.103 76.5199C239.606 74.5519 243.817 73.568 248.737 73.568C253.657 73.568 257.868 74.5519 261.371 76.5199C264.874 78.4682 267.561 81.2036 269.43 84.7263C271.3 88.2292 272.235 92.3029 272.235 96.9473C272.235 101.592 271.3 105.675 269.43 109.198C267.561 112.701 264.874 115.436 261.371 117.404C257.868 119.352 253.657 120.327 248.737 120.327ZM248.855 108.283C250.233 108.283 251.423 107.82 252.427 106.895C253.431 105.97 254.208 104.652 254.759 102.94C255.31 101.228 255.586 99.1907 255.586 96.8292C255.586 94.4479 255.31 92.4111 254.759 90.7187C254.208 89.0066 253.431 87.688 252.427 86.7631C251.423 85.8382 250.233 85.3757 248.855 85.3757C247.399 85.3757 246.149 85.8382 245.106 86.7631C244.063 87.688 243.266 89.0066 242.715 90.7187C242.164 92.4111 241.889 94.4479 241.889 96.8292C241.889 99.1907 242.164 101.228 242.715 102.94C243.266 104.652 244.063 105.97 245.106 106.895C246.149 107.82 247.399 108.283 248.855 108.283ZM295.141 59.0445V119.5H278.847V59.0445H295.141ZM330.483 74.1583V85.9661H300.61V74.1583H330.483ZM306.396 63.2952H322.69V104.917C322.69 105.547 322.799 106.079 323.015 106.512C323.232 106.925 323.566 107.24 324.019 107.456C324.471 107.653 325.052 107.751 325.76 107.751C326.252 107.751 326.823 107.692 327.473 107.574C328.142 107.456 328.634 107.358 328.948 107.279L331.31 118.732C330.582 118.949 329.539 119.215 328.181 119.53C326.843 119.844 325.249 120.051 323.399 120.149C319.66 120.346 316.521 119.962 313.982 118.998C311.444 118.014 309.535 116.469 308.255 114.364C306.976 112.258 306.356 109.621 306.396 106.452V63.2952Z" fill="white"/>
<defs>
<linearGradient id="paint0_linear_2850_75" x1="357" y1="43.5" x2="463" y2="146" gradientUnits="userSpaceOnUse">
<stop stop-color="#FB2C36"/>
<stop offset="0.860577" stop-color="#C800DE"/>
</linearGradient>
</defs>
</svg>
